<svg height="145" width="140" xmlns="http://www.w3.org/2000/svg">
	<rect x="0" y="0" height="90" width="140" fill="#808080"></rect>
	<rect x="0" y="0" height="80" width="130" fill="#2f3645b3" transform="translate(5,5)"></rect>
	<rect x="0" y="0" height="70" width="120" fill="black" transform="translate(10,10)"></rect>
	
	<g stroke="green" stroke-width="4">
		<line x1="30" y1="20" x2="110" y2="20"></line>
		<line x1="30" y1="30" x2="60" y2="30"></line>
		<line x1="30" y1="40" x2="110" y2="40"></line>
		<line x1="30" y1="50" x2="110" y2="50"></line>
		<line x1="30" y1="60" x2="80" y2="60"></line>
	</g>
	

	<rect x="45" y="90" height="20" width="50" fill="#505050"></rect>


	<g transform="translate(4,115)">
		<g transform="skewX(30)">
			<rect x="18" y="0" height="30" width="95" fill="#808080"></rect>
			<rect x="18" y="5" height="20" width="90" fill="black"></rect>
		</g>
		<g transform="skewX(-30) translate(95, 30) rotate(180 18 0)">
			<rect x="18" y="0" height="30" width="95" fill="#808080"></rect>
			<rect x="18" y="5" height="20" width="90" fill="black"></rect>
		</g>
	</g>
</svg>